<svg preserveAspectRatio="none" overflow="visible" style="display: block;" width="32" height="40" viewBox="0 0 32 40" fill="none" xmlns="http://www.w3.org/2000/svg">
<g id="Apple">
<g id="apple icon" filter="url(#filter0_i_0_547)">
<path d="M24.1711 18.9541C24.1859 17.8042 24.4909 16.6768 25.0578 15.6767C25.6247 14.6766 26.435 13.8363 27.4133 13.234C26.7918 12.3452 25.9719 11.6137 25.0187 11.0977C24.0655 10.5817 23.0052 10.2954 21.9222 10.2615C19.6118 10.0186 17.372 11.6458 16.1947 11.6458C14.9946 11.6458 13.182 10.2856 11.23 10.3258C9.96747 10.3666 8.73701 10.7343 7.65852 11.3929C6.58004 12.0515 5.69032 12.9786 5.07605 14.0838C2.4152 18.6968 4.39996 25.4763 6.94884 29.205C8.22409 31.0309 9.71451 33.0705 11.6647 32.9981C13.573 32.9189 14.2858 31.7796 16.5893 31.7796C18.8715 31.7796 19.5402 32.9981 21.5299 32.9521C23.5777 32.9189 24.8679 31.1182 26.0984 29.275C27.0147 27.974 27.7198 26.5361 28.1875 25.0146C26.9978 24.5108 25.9826 23.6674 25.2683 22.5897C24.5541 21.5119 24.1725 20.2475 24.1711 18.9541Z" fill="url(#paint0_linear_0_547)"/>
<path d="M20.4162 7.80885C21.5328 6.46673 22.0828 4.74167 21.9496 3C20.2438 3.1794 18.6681 3.99574 17.5365 5.28636C16.9832 5.91686 16.5595 6.65038 16.2895 7.44496C16.0195 8.23955 15.9085 9.07963 15.963 9.91718C16.8162 9.92598 17.6603 9.7408 18.4316 9.37561C19.203 9.01041 19.8816 8.47471 20.4162 7.80885Z" fill="url(#paint1_linear_0_547)"/>
</g>
</g>
<defs>
<filter id="filter0_i_0_547" x="3.8125" y="3" width="24.375" height="30" filterUnits="userSpaceOnUse" color-interpolation-filters="sRGB">
<feFlood flood-opacity="0" result="BackgroundImageFix"/>
<feBlend mode="normal" in="SourceGraphic" in2="BackgroundImageFix" result="shape"/>
<feColorMatrix in="SourceAlpha" type="matrix" values="0 0 0 0 0 0 0 0 0 0 0 0 0 0 0 0 0 0 127 0" result="hardAlpha"/>
<feOffset/>
<feGaussianBlur stdDeviation="0.454545"/>
<feComposite in2="hardAlpha" operator="arithmetic" k2="-1" k3="1"/>
<feColorMatrix type="matrix" values="0 0 0 0 1 0 0 0 0 1 0 0 0 0 1 0 0 0 1 0"/>
<feBlend mode="plus-lighter" in2="shape" result="effect1_innerShadow_0_547"/>
</filter>
<linearGradient id="paint0_linear_0_547" x1="16" y1="3" x2="16" y2="33" gradientUnits="userSpaceOnUse">
<stop stop-color="#F6F0FF"/>
<stop offset="1" stop-color="#E9E9E9"/>
</linearGradient>
<linearGradient id="paint1_linear_0_547" x1="16" y1="3" x2="16" y2="33" gradientUnits="userSpaceOnUse">
<stop stop-color="#F6F0FF"/>
<stop offset="1" stop-color="#E9E9E9"/>
</linearGradient>
</defs>
</svg>
