<svg preserveAspectRatio="none" overflow="visible" style="display: block;" width="32" height="32" viewBox="0 0 32 32" fill="none" xmlns="http://www.w3.org/2000/svg">
<g id="social/LinkedIn">
<path id="Vector" d="M24.5714 6H7.42411C6.63839 6 6 6.64732 6 7.44196V24.558C6 25.3527 6.63839 26 7.42411 26H24.5714C25.3571 26 26 25.3527 26 24.558V7.44196C26 6.64732 25.3571 6 24.5714 6ZM12.0446 23.1429H9.08036V13.5982H12.0491V23.1429H12.0446ZM10.5625 12.2946C9.61161 12.2946 8.84375 11.5223 8.84375 10.5759C8.84375 9.62946 9.61161 8.85714 10.5625 8.85714C11.5089 8.85714 12.2813 9.62946 12.2813 10.5759C12.2813 11.5268 11.5134 12.2946 10.5625 12.2946ZM23.1562 23.1429H20.192V18.5C20.192 17.3929 20.1696 15.9688 18.6518 15.9688C17.1071 15.9688 16.8705 17.1741 16.8705 18.4196V23.1429H13.9063V13.5982H16.75V14.9018H16.7902C17.1875 14.1518 18.1563 13.3616 19.5982 13.3616C22.5982 13.3616 23.1562 15.3393 23.1562 17.9107V23.1429Z" fill="white" fill-opacity="0.4"/>
</g>
</svg>
