<svg preserveAspectRatio="none" overflow="visible" style="display: block;" width="24" height="24" viewBox="0 0 24 24" fill="none" xmlns="http://www.w3.org/2000/svg">
<g id="category/adventure">
<path id="Primary" d="M11.9982 2.24956C11.9982 1.65294 12.2352 1.08076 12.6571 0.658881C13.079 0.237007 13.6512 0 14.2478 0C14.8444 0 15.4166 0.237007 15.8385 0.658881C16.2604 1.08076 16.4974 1.65294 16.4974 2.24956C16.4974 2.84618 16.2604 3.41837 15.8385 3.84024C15.4166 4.26211 14.8444 4.49912 14.2478 4.49912C13.6512 4.49912 13.079 4.26211 12.6571 3.84024C12.2352 3.41837 11.9982 2.84618 11.9982 2.24956ZM10.9009 5.49601C10.8993 5.49286 10.9022 5.48931 10.9056 5.49016L12.3638 5.85354L14.6134 6.41593L14.7954 6.46145C15.0402 6.52265 15.2535 6.67261 15.3939 6.88222V6.88222C15.4635 6.98602 15.5133 7.10174 15.5409 7.22358L15.7359 8.08387C15.9273 8.9284 16.6404 9.55382 17.5027 9.63335L17.6551 9.6474C18.2412 9.70145 18.7469 9.24018 18.7469 8.65163V8.62332V8.62332C18.7469 8.00212 19.2505 7.49854 19.8717 7.49854V7.49854C20.4929 7.49854 20.9965 8.00212 20.9965 8.62332V8.62332V9.7481V12.7475V22.8705V22.8705C20.9965 23.4917 20.4929 23.9953 19.8717 23.9953V23.9953C19.2505 23.9953 18.7469 23.4917 18.7469 22.8705V22.8705V13.3967C18.7469 13.0019 18.5146 12.644 18.1539 12.4833L16.5781 11.7813C15.4428 11.2754 14.1259 11.9168 13.8241 13.1225L13.7824 13.2889C13.6118 13.9706 13.8114 14.6919 14.3083 15.1888L16.0568 16.9373V16.9373C16.3389 17.2194 16.4974 17.6023 16.4974 18.0012V18.0012V22.5003V22.5003C16.4974 23.3286 15.8259 24 14.9977 24V24C14.1694 24 13.498 23.3286 13.498 22.5003V22.5003V19.4529C13.498 18.9225 13.2872 18.4138 12.9122 18.0387L10.2393 15.3658C10.2341 15.3606 10.2277 15.3569 10.2207 15.355L10.2007 15.3496C10.1892 15.3464 10.1825 15.3345 10.1858 15.3231V15.3231C10.1879 15.3157 10.1858 15.3077 10.1804 15.3022L10.0346 15.1564C9.29408 14.4159 8.99414 13.3474 9.24253 12.3304L10.5454 6.96427L10.9012 5.49883C10.9015 5.49788 10.9013 5.49689 10.9009 5.49601V5.49601ZM8.31115 16.3614C8.38517 16.0799 8.76488 16.0051 8.97071 16.2109V16.2109L10.1227 17.3629C10.6254 17.8656 10.8234 18.5973 10.643 19.2849L9.70033 22.8761C9.52724 23.5355 8.93122 23.9953 8.24945 23.9953V23.9953C7.26605 23.9953 6.54866 23.0649 6.79872 22.1139L8.31115 16.3614ZM7.18713 4.49912C8.48827 4.49912 9.44299 5.7219 9.12741 6.98419L7.94694 11.7061C7.69404 12.7177 6.70639 13.3652 5.67785 13.1938L5.18305 13.1114C4.01478 12.9166 3.27069 11.755 3.58232 10.6123L4.84762 5.97289C5.08493 5.10276 5.87525 4.49912 6.77715 4.49912H7.18713Z" fill="#C0FF47"/>
</g>
</svg>
