<svg preserveAspectRatio="none" overflow="visible" style="display: block;" width="20" height="20" viewBox="0 0 20 20" fill="none" xmlns="http://www.w3.org/2000/svg">
<g id="flag">
<path id="Like" d="M19.2592 10.7394C19.6449 11.0084 20 11.2753 20 12.2138C20 13.1544 19.4981 13.535 18.9611 13.7997C19.1803 14.1563 19.2504 14.5872 19.1562 14.9941C18.9874 15.7466 18.297 16.3306 17.6833 16.5034C17.9485 16.9278 18.0318 17.3456 17.7162 17.8597C17.3107 18.505 16.9578 18.75 15.3973 18.75H9.04116C6.8757 18.75 5.75351 17.5556 5.75351 16.5625V11.4547C5.75351 8.76406 8.96883 6.47812 8.96883 4.60781L8.73651 2.27813C8.72555 2.13594 8.75404 1.78813 8.86363 1.6875C9.03897 1.51469 9.52335 1.25 10.2554 1.25C10.7332 1.25 11.051 1.33969 11.4258 1.51906C12.6992 2.125 13.0302 3.65844 13.0302 4.89219C13.0302 5.485 12.1228 7.26125 12.0001 7.87594C12.0001 7.87594 13.9003 7.45594 16.1184 7.44062C18.4438 7.4275 19.9518 7.85625 19.9518 9.2825C19.9518 9.85344 19.4718 10.4266 19.2592 10.7394ZM1.31506 9.08945H2.80295C3.15172 9.08945 3.48622 9.22773 3.73284 9.47387C3.97946 9.72002 4.11801 10.0539 4.11801 10.402V17.4375C4.11801 17.7856 3.97946 18.1194 3.73284 18.3656C3.48622 18.6117 3.15172 18.75 2.80295 18.75H1.31506C0.966284 18.75 0.631794 18.6117 0.385172 18.3656C0.138551 18.1194 0 17.7856 0 17.4375V10.402C0 10.0539 0.138551 9.72002 0.385172 9.47387C0.631794 9.22773 0.966284 9.08945 1.31506 9.08945Z" fill="white"/>
</g>
</svg>
